/* XPM */
static char * icon_xpm[] = {
"48 48 214 2",
"  	c None",
". 	c #7C625C",
"+ 	c #745E54",
"@ 	c #6C6644",
"# 	c #6C5E44",
"$ 	c #54362C",
"% 	c #4C2E2C",
"& 	c #442204",
"* 	c #340204",
"= 	c #340A04",
"- 	c #4C3E04",
"; 	c #5C4E0C",
"> 	c #6C5E14",
", 	c #541204",
"' 	c #440204",
") 	c #5C3E04",
"! 	c #6C4604",
"~ 	c #7C725C",
"{ 	c #8C8A74",
"] 	c #443A0C",
"^ 	c #440A04",
"/ 	c #6C4E04",
"( 	c #8C6A0C",
"_ 	c #84721C",
": 	c #9C6224",
"< 	c #7C560C",
"[ 	c #7C6A14",
"} 	c #6C561C",
"| 	c #AC9244",
"1 	c #A48A24",
"2 	c #9C721C",
"3 	c #64120C",
"4 	c #6C0204",
"5 	c #8C3214",
"6 	c #7C220C",
"7 	c #94762C",
"8 	c #9C8224",
"9 	c #9C6A24",
"0 	c #B4A664",
"a 	c #AC9224",
"b 	c #8C5A1C",
"c 	c #AC624C",
"d 	c #A48A3C",
"e 	c #540204",
"f 	c #84723C",
"g 	c #BCAE84",
"h 	c #B48A24",
"i 	c #741A04",
"j 	c #CCA634",
"k 	c #8C3E14",
"l 	c #8C7A54",
"m 	c #BC9A2C",
"n 	c #7C2A2C",
"o 	c #7C4214",
"p 	c #947214",
"q 	c #8C5234",
"r 	c #CC962C",
"s 	c #64221C",
"t 	c #542624",
"u 	c #642A24",
"v 	c #6C3E44",
"w 	c #7C5A4C",
"x 	c #947A74",
"y 	c #8C2214",
"z 	c #947A1C",
"A 	c #AC6A24",
"B 	c #BCA234",
"C 	c #B48224",
"D 	c #8C0A04",
"E 	c #6C0A04",
"F 	c #64360C",
"G 	c #6C220C",
"H 	c #A45A1C",
"I 	c #9C5224",
"J 	c #74120C",
"K 	c #AC861C",
"L 	c #8C4A14",
"M 	c #7C0604",
"N 	c #3C1A0C",
"O 	c #443204",
"P 	c #5C4614",
"Q 	c #6C4E1C",
"R 	c #44120C",
"S 	c #540A04",
"T 	c #8C2E2C",
"U 	c #D4AE34",
"V 	c #DCBA34",
"W 	c #9C3A14",
"X 	c #7C2A0C",
"Y 	c #543A04",
"Z 	c #443214",
"` 	c #2C2214",
" .	c #5C4604",
"..	c #9C0E0C",
"+.	c #E4C23C",
"@.	c #B48A3C",
"#.	c #342A0C",
"$.	c #3C321C",
"%.	c #543204",
"&.	c #4C3E1C",
"*.	c #442A04",
"=.	c #8C120C",
"-.	c #9C2214",
";.	c #7C3A1C",
">.	c #B46224",
",.	c #F4CA4C",
"'.	c #ECBE44",
").	c #BC924C",
"!.	c #7C5E34",
"~.	c #7C1A14",
"{.	c #9C7244",
"].	c #5C4E24",
"^.	c #9C421C",
"/.	c #8C6A24",
"(.	c #6C4644",
"_.	c #8C521C",
":.	c #541A14",
"<.	c #B4AEA4",
"[.	c #745604",
"}.	c #7C4224",
"|.	c #A47264",
"1.	c #7C5A04",
"2.	c #5C4A24",
"3.	c #441A0C",
"4.	c #7C5A1C",
"5.	c #7C4A1C",
"6.	c #847A64",
"7.	c #641A0C",
"8.	c #947E2C",
"9.	c #5C3E24",
"0.	c #4C4624",
"a.	c #7C120C",
"b.	c #1C1A1C",
"c.	c #542A04",
"d.	c #7C620C",
"e.	c #7C4E0C",
"f.	c #0C1214",
"g.	c #2C2A2C",
"h.	c #64362C",
"i.	c #1C0E0C",
"j.	c #9C6664",
"k.	c #6C3E2C",
"l.	c #8C622C",
"m.	c #242224",
"n.	c #2C3234",
"o.	c #8C2A14",
"p.	c #542214",
"q.	c #6C3E14",
"r.	c #945A44",
"s.	c #B4B2AC",
"t.	c #7C0A04",
"u.	c #6C462C",
"v.	c #7C6624",
"w.	c #4C4644",
"x.	c #B49634",
"y.	c #B47A2C",
"z.	c #AC521C",
"A.	c #3C3E44",
"B.	c #6C5644",
"C.	c #8C0204",
"D.	c #642A0C",
"E.	c #A4867C",
"F.	c #44362C",
"G.	c #44464C",
"H.	c #7C5234",
"I.	c #9C0604",
"J.	c #74262C",
"K.	c #742A1C",
"L.	c #3C3A3C",
"M.	c #8C1A14",
"N.	c #942224",
"O.	c #74525C",
"P.	c #C48A34",
"Q.	c #9C2A24",
"R.	c #5C5A64",
"S.	c #AC1614",
"T.	c #9C1A1C",
"U.	c #74320C",
"V.	c #5C626C",
"W.	c #4C4E5C",
"X.	c #54565C",
"Y.	c #AC4A24",
"Z.	c #9C3224",
"`.	c #5C4E4C",
" +	c #AC221C",
".+	c #7C423C",
"++	c #6C6674",
"@+	c #9C6A4C",
"#+	c #94624C",
"$+	c #6C727C",
"%+	c #9C523C",
"&+	c #B46A4C",
"*+	c #AC7654",
"=+	c #AC461C",
"-+	c #9C4A1C",
";+	c #B4826C",
">+	c #C4523C",
",+	c #B4562C",
"'+	c #A44A3C",
")+	c #B46644",
"!+	c #D4926C",
"~+	c #E49674",
"{+	c #D48264",
"]+	c #C49E5C",
"^+	c #C4A664",
"/+	c #DC8A64",
"(+	c #ECAE84",
"_+	c #DCA284",
":+	c #8C6A6C",
"<+	c #D4B29C",
"[+	c #F4CAAC",
"}+	c #743634",
"|+	c #DC7A54",
"1+	c #B46A24",
"                                                          . + @ # $ % +                         ",
"                                                    & * = - ; > , ' ' ) ! ~                     ",
"                                                { ] * ^ / ( _ : ' ' < [ > } @                   ",
"                                            | 1 2 3 4 5         6 : 7 8 8 9 ' ' ' ,             ",
"                                          0 a 1 b 4 4 c             d a a 2 e e e ! f           ",
"                                        g h h 1 i 4 4                   j k e ' ! [ [ l         ",
"                                        a m a 2 4 4 n                       4 o p [ ( q         ",
"                                        m r m k 4 4 3 s s t u v w x         y a z _ 6 A         ",
"                                      k B m C D 4 E ! ! F G e ' ' ' ,       H j j I J d         ",
"                                    G 2 h K L M E N O - - P Q ! R S e ' t T r U V W X |         ",
"                                O - Y - - Z ) & ` ] ) Y ! ;  .O Y ) ) P 6 ..V +.V W o @.        ",
"                            # #.] - O Y  .; O $.O %.Y ] - &.*.! %.) ! ) =.-.V V +.W ;.@.        ",
"                          ~ ` *.O %.! P ; *.) ) Y ) ] ] ; O #.Y ) )  .X ..>.,.+.'.W L ).        ",
"                        !.& - Y - - #.] #.Z ) - %.) ; ; *.O ] - - ] ] ~.=.r ,.+.V H 8 {.        ",
"                      ].` - %.Y ) ! Z P #.O %.) ! P Q *. .) )  .] $.} =.^.j V U r : /.(.        ",
"                    ] & $.Y ) )  . .; O - ) ) - O - #.&. .) %.)  .} O $.) ( j j H _.:.w         ",
"                <.O #.#.O O - ] ] ; & ) Y  . .! #.} #.O  . .! ; [.%.)  . . .! ].}.3 * |.        ",
"              ~ Z ! Y O Y  .- P ` $.O %. . .Y } O ) ) )  . .$. .O #.) !  .! / 1.R ' %.l         ",
"            # G O -  .)  .!  .- ! ) ) ! $.] } $.O  .Y  .! / / Q ] Y - Y ) - 2.3.' , < &.        ",
"          ].s ' i G Y - &.&.O  .) Y )  .O ].Y O #.Y  ./ ; / 4.O  .) !  .) ] F ' ' 5.&.&.6.      ",
"        P O 3 7.' e _.8.[.P &. .) Y ) ! > - ] Y )  .) ] - ].` ! ) )  ./ / - ' ' ;.9.$.] 0.~     ",
"      #.] & 4 4 a.;.$ /.Z b.% c.) ].; ) ) )  .) ) ! - ] d. .O - ! !  ./ [.4.' G e.- !  . .; 6.  ",
"    ) ! ) i 3 , 7.8 8 9.f.b.g.b.N Z Z ].#.; ! Y )  ./ ].&.#.] -  .! / ! } 6 , _.%./ / ! [./ 0.  ",
"  6. .) ) M M =.h.} 4.f.f.i.g.b.i.b.g.9.$.)  . . ./ b Q ) ; !  .!  .] / ;.M L %.&.[./ ) [.1.>   ",
"j.' c.F M M ~.k.l.b.f.i.m.f.i.m.g.n.b.b.f.f.b.% Z - #.0.[.! ) ) / [.b a.D o.O  .! ! ! ! ! } p.  ",
"  ' ' M 3 S ;.1 ` f.f.b.b.f.m.g.g.g.b.i.f.i.m.g.n.g._.-  ./ [./ [.d.X D a.: / b / [.< [.[.q.r.  ",
"s.* e M t.X u.v.i.f.f.m.b.f.g.g.g.m.b.f.i.b.b.g.n.w.x.y.y o ! P 0.5.D a.z.q.1./ ! ! 1.< !.:.    ",
"  t e 4 =.8 8 % b.i.i.g.m.i.g.b.g.b.f.f.i.b.f.b.A.B.k.s M =.-.X 4.=.C.k _.) / 1.< [.< < D.E.    ",
"    e ' o 2 F.i.g.b.m.m.m.b.m.b.g.b.i.f.b.m.i.b.G.H.B ^.n R , J a.I.y : %.P o ! / < d.Q J.      ",
"    4.K.' R f.b.g.b.m.m.m.g.b.i.g.= b.i.m.g.b.g.L.H 7 y =.M.N.J.C.=.H q.[.< 1./ [. .! v.        ",
"    3 q.f.f.i.b.m.b.i.m.g.G.i.b.g.m.m.b.g.G.G.A.O.y.P.N.T n 3 C.Q.: *.].1.< / 1.b d.v.:.        ",
"    M * f.i.b.b.g.b.b.g.g.g.i.b.m.g.g.g.A.R.G.L.v C 5.=...S.T.I.>.! ! &.[.1.1.d.( 2 U.|.        ",
"    e i.f.f.b.f.m.m.n.g.m.b.b.b.b.n.L.g.R.V.W.n.n m q s 3 ....I.5.O &.! ! ! d.v.; r.J.          ",
"    ' i.f.b.m.f.b.g.g.n.m.b.b.b.m.g.A.g.V.R.X.G.y a Y.T.Q.N.C.Z.) 1._.1.1._./ ; 7 3             ",
"    i.f.i.b.m.i.g.g.w.g.b.b.b.b.b.F.A.n.X.X.X.`.W @.s a.S... +>./ 1.< < < ( 0.d.k .+            ",
"  (.f.f.f.g.b.b.F.g.n.g.N b.b.m.b.n.A.`.W.R.O.v z.j Z.n =.T.>.o d.b [./ < d.< : :.              ",
"  $ b.f.i.g.m.b.g.F.g.g.b.b.b.b.b.g.A.V.G.R.V.h.9 j T...T.>.^.F Q d.d.< < ( 8 5 c               ",
"F.u.F.m.m.g.g.m.g.b.g.m.b.b.b.n.m.m.W.R.X.V.V.C W t.3 5 I 4 4 4 M J 6 < u.} 7.                  ",
"`.h.r.B.g.g.g.g.m.b.n.b.b.b.m.A.m.G.`.R.++++l.a a 1 I.y M 4 4 4 4 M t.M 6 L 5                   ",
"  c.q @+#+F.g.n.b.b.n.m.m.b.g.G.n.W.V.$+.+M.M y A B =.M M 4 4 4 M 4 M 4 M 4                     ",
"    ;.%+&+*+B.A.b.b.n.m.m.i.g.G.W.X.$+O.4 M a...=+>.4 C.D ' S ' ' 4 ' 4 ' 4                     ",
"    W -+%+&+;+@+$.b.g.m.g.m.n.R.V.W.u 4 M  +>+,+~.M M C.e 4 e 4 4 e M t.M =.                    ",
"      r.'+'+)+)+!+!+|.B.w.n.L.++v ' S '+~+{+,+=.4 I.=+>.>.y.y.@.!+P.]+^+]+                      ",
"        |.}.^.q {+/+~+(+(+_+w :+;+<+[+_+c X =.M T.z.                                            ",
"              }+^.Y.=+'+%+|+!+!+;+.+S ' 5 1+<+                                                  ",
"                . J.3., u ;.$ $ R ' e ;.<+                                                      ",
"                      x $ N * * * , l.                                                          ",
"                            w .                                                                 "};
